PathFileType	4	(X/Y/Z)	Walk1.trc
DataRate	CameraRate	NumFrames	NumMarkers	Units	OrigDataRate	OrigDataStartFrame	OrigNumFrames
200.000000	200.000000	8	56	mm	200.000000	376	536
Frame#	Times		RBHD		C7		T10		CLAV		RBack		LASI		RASI		LPSI		RACR1		RUA1		RElbow		RFA1		RWRR		RWRU		RCAR		LACR1		LElbow		LElbowM		LFA1		LWRR		LWRU		RTH1		RTH3		RTH2		RTH4		RLFC		RTB1		RTB3		RTB2		RTB4		RMMAL		RMT1		RMT5		LTH3		LTH2		LTH4		LTB1		RPSI		LBHD		LLFC		LTB4		LTH1		LTB3		LFHD		RElbowM		LMT1		LCAL		LMT5		RLMAL		LLMAL		LTB2		LCAR		RToe		LToe		LUA1		RCAL
			X1	Y1	Z1	X2	Y2	Z2	X3	Y3	Z3	X4	Y4	Z4	X5	Y5	Z5	X6	Y6	Z6	X7	Y7	Z7	X8	Y8	Z8	X9	Y9	Z9	X10	Y10	Z10	X11	Y11	Z11	X12	Y12	Z12	X13	Y13	Z13	X14	Y14	Z14	X15	Y15	Z15	X16	Y16	Z16	X17	Y17	Z17	X18	Y18	Z18	X19	Y19	Z19	X20	Y20	Z20	X21	Y21	Z21	X22	Y22	Z22	X23	Y23	Z23	X24	Y24	Z24	X25	Y25	Z25	X26	Y26	Z26	X27	Y27	Z27	X28	Y28	Z28	X29	Y29	Z29	X30	Y30	Z30	X31	Y31	Z31	X32	Y32	Z32	X33	Y33	Z33	X34	Y34	Z34	X35	Y35	Z35	X36	Y36	Z36	X37	Y37	Z37	X38	Y38	Z38	X39	Y39	Z39	X40	Y40	Z40	X41	Y41	Z41	X42	Y42	Z42	X43	Y43	Z43	X44	Y44	Z44	X45	Y45	Z45	X46	Y46	Z46	X47	Y47	Z47	X48	Y48	Z48	X49	Y49	Z49	X50	Y50	Z50	X51	Y51	Z51	X52	Y52	Z52	X53	Y53	Z53	X54	Y54	Z54	X55	Y55	Z55	X56	Y56	Z56

376	1.88	390.15	1596.8	358.09	376.47	1459.4	301.65	289.14	1147.9	290.37	514.62	1383.4	287.26	311.72	1371.3	401.86	484.46	970.58	143.02	469.07	953.03	444.81	304.74	980.34	228.78	448.29	1423.5	450.25	412.36	1237.5	543.31	373.18	1112.5	581.52	436.49	975.85	602.17	514.21	858.83	557.69	449.09	846.46	599.73	502.28	802.55	602.11	409.75	1438.8	126.44	314.24	1117.8	39.209	301.03	1118.2	116.81	382.38	980	-7.326	434.52	869.91	22.073	356.06	862.38	-1.2509	442.09	746.64	486.18	507.18	569.73	476.33	540.84	684.98	467.42	474.41	657.4	485.19	523.43	475.19	465.57	515.24	377.53	381.17	386.25	238.58	374.75	437.09	315.64	451.21	453.89	308.81	379.71	308.12	189.47	325.84	368.24	73.644	336.18	340.97	81.463	415.19	464.65	576.08	132.8	527.26	672.61	151.42	460.4	664.09	113.8	498.53	370.4	217.06	294.39	976.57	333.36	389.13	1585.6	220.64	460	458.5	153.32	476.73	279.73	231.43	456.1	761.79	103.13	462.76	188.68	243.47	567.41	1634.5	238.7	345.58	1080.8	490.9	547.76	36.619	296.9	336.61	30.436	275.03	517.44	32.348	210.15	271.53	194.19	409.65	385.22	71.231	226.19	450.69	275.68	164.47	422.68	817.48	-26.024	411.84	61.407	366.09	593.31	33.655	279.98	357.08	1242.6	43.021	206.02	178.61	362.37
377	1.885	395.98	1596.8	358.64	381.89	1459.6	301.78	294.52	1147.9	290.07	519.91	1383.7	287.52	316.74	1371.4	401.32	489.67	970.67	142.63	475.6	953.53	444.07	309.46	980.54	228.72	453.53	1423.2	450.37	416	1237.3	542.89	375.77	1112.5	580.7	437.41	975.19	601.68	514.11	857.08	557.71	448.46	845.36	599.21	501.06	800.94	602.28	415.54	1439.5	126.66	320.84	1118.3	38.442	307.47	1118.9	116.38	390.82	980.77	-7.481	444.16	871.6	22.57	366.01	862.97	-1.4446	448.58	747.72	486.67	516.28	571.48	476.93	549.23	686.65	467.49	481.98	658.66	485.81	533.18	476.47	465.96	526.3	379.02	381.57	400.11	237.35	374.74	449.3	315.11	451.35	466.67	308.95	379.8	323.46	186.72	325.34	386.25	72.72	336.55	358.84	79.762	415.4	466.92	576.11	132.38	530.31	671.84	151.36	463.8	664.34	113.6	499.07	370.07	216.59	299.66	976.74	333.3	394.39	1586.1	221.27	460.83	458.34	152.88	477.43	279.59	230.93	459.9	761.78	103.09	463.47	188.89	242.91	572.93	1634.6	239.21	348.31	1081.2	489.87	547.71	36.617	296.83	337.05	29.935	275.46	517.45	32.278	210.03	286.75	190.58	409.6	385.07	71.095	226.15	450.97	275.49	164.1	433.11	818.91	-25.66	430.22	61.373	366.36	593.31	33.616	279.98	363.42	1243.2	42.65	221.37	173.17	362.34
378	1.89	401.6	1597	359.33	387.3	1459.5	301.82	300.13	1148.1	289.89	525.23	1383.6	287.66	321.64	1371.5	400.94	494.88	970.66	142.21	480.74	953.51	443.79	315.29	980.48	228.84	458.37	1422.9	450.6	419.57	1237	542.65	378.3	1112.3	579.97	438.51	974.42	601	513.95	855.3	557.82	447.19	843.99	598.61	499.84	799.53	602.17	421.25	1440.1	126.71	327.54	1118.5	37.708	313.95	1119	115.8	399.6	981.86	-7.7223	454.15	873.45	22.747	376.21	863.75	-1.6571	454.3	748.76	487.59	524.94	573.02	477.39	556.09	688.77	467.44	489.94	659.96	486.14	543.19	477.96	466.26	539.17	380.69	381.27	414.28	236.1	374.79	461.98	314.87	451.29	479.29	309.09	379.96	338.81	184.01	325.17	405.03	71.651	336.62	376.99	77.912	415.55	468.75	575.86	132.22	533.34	671.04	151.22	466.14	664.37	113.7	499.88	369.83	216.24	305.39	977.07	333.54	399.9	1586.5	221.78	461.65	458.14	152.5	478.13	279.37	230.62	462.64	761.51	103.39	464.31	188.92	242.37	578.46	1634.6	239.69	351.04	1081.6	488.66	547.69	36.589	296.83	337.21	29.834	275.58	517.48	32.155	209.9	301.99	186.71	409.6	384.92	71.042	226.09	451.39	275.32	163.82	443.65	820.34	-25.204	448.9	61.428	366.79	593.33	33.581	280	369.49	1243.7	42.269	237.21	167.64	362.29
379	1.895	406.81	1596.9	359.95	392.59	1459.4	301.97	305.46	1148.1	289.63	530.5	1383.6	287.84	327.14	1371.3	400.9	499.62	970.69	142.02	485.28	953.42	443.72	320.85	980.58	229.03	463.36	1422.7	450.9	423.53	1236.6	542.35	380.8	1112.1	578.69	439.21	973.63	600.61	513.85	853.69	557.96	446.83	843.51	598.02	499.01	797.86	602.22	426.61	1440.5	126.94	334.11	1118.8	37.161	320.36	1119	115.11	407.86	982.75	-7.7432	463.68	875.18	23.071	385.93	864.45	-1.5168	460.79	749.96	488.61	533.61	574.26	477.82	562.88	690.25	467.62	497.84	660.84	486.52	553.1	479.11	466.31	549.88	382.25	381.6	428.79	234.83	374.74	474.6	314.53	451.41	491.82	309.24	380.31	354.4	181.06	325.23	423.86	70.875	336.75	395.24	76.082	415.74	470.99	575.79	131.8	536.28	670.16	151.55	468.46	663.93	113.84	500.87	369.59	215.94	311.04	977.37	333.75	405.35	1586.7	222.18	463.17	457.98	152.13	478.89	279.11	230.32	466.31	761.53	103.47	464.77	188.8	242.08	583.82	1634.7	240.24	354.08	1081.9	487.44	547.71	36.602	296.81	337.19	30.006	275.44	517.52	32.059	209.77	317.59	182.89	409.61	384.91	71.096	226.03	451.92	275.17	163.64	454.42	821.95	-24.838	467.65	61.361	367.13	593.37	33.508	280.02	375.48	1244.2	41.872	253.22	161.81	362.18
380	1.9	412.23	1596.6	360.62	397.87	1459.7	302.21	310.75	1148	289.43	535.84	1383.7	288.1	332.17	1371.2	400.7	504.76	970.34	141.75	490.7	953.28	443.44	326.2	980.94	229.07	468.32	1422.4	451.16	427.53	1236.2	542.04	383.66	1111.7	577.65	440.19	972.75	600.3	513.73	852.01	558.18	446.74	842.87	597.55	497.87	796.52	602.3	432.58	1440.9	126.91	340.65	1118.8	36.634	326.85	1119.1	114.63	416.21	983.37	-7.8334	473.35	876.76	23.477	396.24	864.89	-1.5699	467.59	750.97	489.24	541.98	575.74	478.02	569.67	691.93	467.62	505.2	661.92	486.91	562.41	480.53	466.2	560.52	383.11	382.34	443.39	233.46	374.76	487.21	314.09	451.74	503.95	309.19	381.44	369.1	177.68	325.34	442.71	69.637	336.89	413.76	74.251	415.91	473.47	575.64	131.56	539.61	669.49	151.56	471.22	663.75	113.57	500.92	369.4	215.83	316.25	977.4	333.51	410.76	1587	222.74	464.36	457.75	152.01	479.76	278.87	230.04	470.69	761.47	103.22	464.94	188.65	242.03	589.27	1634.8	240.91	357.24	1082	486.4	547.75	36.59	296.83	336.75	30.498	275.06	517.61	31.943	209.64	333.23	178.69	409.52	385	71.088	226.09	452.59	275.07	163.41	465.13	823.47	-24.471	486.53	62.205	368.23	593.45	33.341	280.05	381.66	1244.6	41.576	269.64	155.08	361.92
381	1.905	417.77	1596.5	361.29	403.38	1459.5	302.24	316.24	1148.1	289.36	541.1	1383.5	288.27	337.28	1371.1	400.32	509.66	970.24	141.56	496.32	953.18	442.99	331.35	980.95	229.19	473.32	1422.1	451.25	431.4	1235.7	541.75	386.26	1111.5	576.69	441.32	972.03	599.7	513.68	850.29	558.29	446.22	841.65	597.31	496.35	794.89	602.55	437.93	1441.2	126.99	347.24	1119	35.971	333.05	1118.9	113.84	424.54	984.25	-8.0211	483.25	878.33	23.962	406.19	865.66	-1.2838	474.68	751.79	489.63	550.46	576.92	478.38	576.74	693.36	467.6	512.48	662.39	487.78	571.47	481.88	466.41	570.95	384.42	382.87	457.66	232.15	374.93	499.68	313.89	451.94	516.67	308.95	381.47	384.77	174.62	325.65	462.18	68.648	337.06	432.21	72.466	416.19	476.06	575.46	131.35	542.65	668.66	151.87	474.79	663.64	113.39	501.4	368.86	216.05	321.73	977.33	333.55	416.23	1587.3	223.51	465.89	457.56	151.9	480.38	278.85	229.9	475.11	761.26	103.06	465.13	188.56	242.04	594.73	1634.6	241.49	360.56	1082.1	485.56	547.79	36.574	296.86	336.93	30.491	275.11	517.73	31.822	209.48	349.03	174.77	409.49	384.96	71.034	226.05	453.37	275	163.27	475.87	824.97	-24.054	505.64	62.463	368.75	593.56	33.183	280.15	387.82	1244.9	41.192	286	149.47	361.79
382	1.91	423.38	1596.2	361.72	408.79	1459.5	302.09	321.59	1147.9	289.12	546.51	1383.3	288.47	342.3	1370.7	400.04	514.79	969.89	141.21	501.79	953.05	442.62	336.46	980.68	229.04	478.6	1421.5	451.44	434.93	1235.2	541.49	388.76	1111.2	575.88	442.21	971.28	599.35	513.67	848.47	558.41	445.64	840.65	596.77	495.47	793.51	602.53	443.32	1441.3	127.43	353.96	1119	35.274	339.3	1118.8	112.97	433.08	985.05	-8.1287	492.63	879.94	24.448	415.91	865.96	-1.1389	481.86	752.09	489.66	558.54	578.25	478.49	584.01	694.71	467.53	521.06	663.41	488.47	580.57	483.3	466.79	581.73	385.83	383.24	472.11	230.63	375.29	512.08	313.43	452.21	530.22	308.9	381.16	401.16	171.45	325.85	480.73	67.454	337.57	450.77	70.706	416.53	478.8	575.12	131.12	545.87	667.94	152.05	478.4	663.44	113.32	502.44	368.39	216.13	326.67	977.31	333.65	421.55	1587.4	224.37	467.36	457.39	151.86	480.94	278.76	229.9	479.49	761.05	102.98	465.34	188.31	242.18	600.04	1634.4	242.09	364.13	1082.1	484.74	547.81	36.543	296.87	337.15	30.401	275.38	517.57	31.752	209.18	364.85	170.54	409.44	385.04	71.096	226.03	454.21	274.82	163.22	486.55	826.6	-23.601	524.42	62.41	369.56	593.67	33.047	280.19	393.63	1245.2	40.885	302.58	144.63	361.78
383	1.915	428.89	1596	362.17	414.09	1459.1	302.41	326.71	1147.8	289.01	551.83	1383.2	288.74	347.35	1370.4	399.91	519.98	969.74	140.78	507.58	952.74	442.39	341.67	980.62	229.04	483.38	1420.9	451.76	438.32	1234.7	541.33	391.23	1110.8	574.96	443.11	970.57	598.93	513.18	847.02	559.04	445.2	839.97	596.05	494.82	791.82	602.4	449.03	1441.4	127.48	360.42	1118.7	34.484	345.6	1118.9	112.38	441.68	985.55	-8.2158	502.41	881.55	24.863	425.87	866.68	-1.1745	489.12	752.44	489.57	566.7	579.16	478.9	591.15	696.1	467.36	528.2	664.74	488.67	589.38	484.6	467.3	592.44	386.92	383.61	486.89	229.19	375.42	524.26	312.98	452.3	542.84	308.82	381.37	417.7	168.06	325.96	499.55	66.588	337.79	469.53	68.886	416.89	481.56	574.81	131.05	549.97	667.17	152.25	482.08	663.14	113.16	503.2	367.99	216.42	332.14	977.08	333.72	426.93	1587.2	224.93	469.2	457.17	151.74	481.6	278.47	229.97	483.94	760.82	102.88	465.64	188.07	242.25	605.53	1634.3	242.67	367.91	1081.8	483.71	547.82	36.489	296.93	336.71	30.386	275.58	517.99	31.711	209.24	380.95	166.37	409.59	385.15	71.205	225.97	455.01	274.61	163.16	497.04	828.11	-23.131	543.27	62.782	370.4	593.79	32.988	280.03	400	1245.4	40.529	319.22	139.6	361.93
